solid ascii
 facet normal -1 0 0
  outer loop
   vertex 0 0.01 0
   vertex 0 0.01 0.03
   vertex 0 0.03 0
  endloop
 endfacet
 facet normal -1 0 0
  outer loop
   vertex 0 0.03 0.03
   vertex 0 0.03 0
   vertex 0 0.01 0.03
  endloop
 endfacet
 facet normal 1 0 0
  outer loop
   vertex 0.05 0.01 0
   vertex 0.05 0.03 0
   vertex 0.05 0.01 0.03
  endloop
 endfacet
 facet normal 1 -0 0
  outer loop
   vertex 0.05 0.03 0.03
   vertex 0.05 0.01 0.03
   vertex 0.05 0.03 0
  endloop
 endfacet
 facet normal 0 -1 0
  outer loop
   vertex 0 0.01 0
   vertex 0.05 0.01 0
   vertex 0 0.01 0.03
  endloop
 endfacet
 facet normal 0 -1 0
  outer loop
   vertex 0.05 0.01 0.03
   vertex 0 0.01 0.03
   vertex 0.05 0.01 0
  endloop
 endfacet
 facet normal 0 1 0
  outer loop
   vertex 0 0.03 0
   vertex 0 0.03 0.03
   vertex 0.05 0.03 0
  endloop
 endfacet
 facet normal 0 1 -0
  outer loop
   vertex 0.05 0.03 0.03
   vertex 0.05 0.03 0
   vertex 0 0.03 0.03
  endloop
 endfacet
 facet normal 0 0 -1
  outer loop
   vertex 0 0.01 0
   vertex 0 0.03 0
   vertex 0.05 0.01 0
  endloop
 endfacet
 facet normal 0 0 -1
  outer loop
   vertex 0.05 0.03 0
   vertex 0.05 0.01 0
   vertex 0 0.03 0
  endloop
 endfacet
 facet normal 0 0 1
  outer loop
   vertex 0 0.01 0.03
   vertex 0.05 0.01 0.03
   vertex 0 0.03 0.03
  endloop
 endfacet
 facet normal -0 0 1
  outer loop
   vertex 0.05 0.03 0.03
   vertex 0 0.03 0.03
   vertex 0.05 0.01 0.03
  endloop
 endfacet
endsolid
