solid OpenSCAD_Model
  facet normal -0 0 1
    outer loop
      vertex -15 15 27.0067
      vertex 15 -15 27.0067
      vertex 15 15 27.0067
    endloop
  endfacet
  facet normal 0 0 1
    outer loop
      vertex 15 -15 27.0067
      vertex -15 15 27.0067
      vertex -15 -15 27.0067
    endloop
  endfacet
  facet normal 0 0 -1
    outer loop
      vertex -15 -15 2
      vertex 15 15 2
      vertex 15 -15 2
    endloop
  endfacet
  facet normal -0 0 -1
    outer loop
      vertex 15 15 2
      vertex -15 -15 2
      vertex -15 15 2
    endloop
  endfacet
  facet normal 0 -1 0
    outer loop
      vertex -15 -15 2
      vertex 15 -15 27.0067
      vertex -15 -15 27.0067
    endloop
  endfacet
  facet normal 0 -1 -0
    outer loop
      vertex 15 -15 27.0067
      vertex -15 -15 2
      vertex 15 -15 2
    endloop
  endfacet
  facet normal 1 -0 0
    outer loop
      vertex 15 -15 27.0067
      vertex 15 15 2
      vertex 15 15 27.0067
    endloop
  endfacet
  facet normal 1 0 0
    outer loop
      vertex 15 15 2
      vertex 15 -15 27.0067
      vertex 15 -15 2
    endloop
  endfacet
  facet normal 0 1 -0
    outer loop
      vertex 15 15 2
      vertex -15 15 27.0067
      vertex 15 15 27.0067
    endloop
  endfacet
  facet normal 0 1 0
    outer loop
      vertex -15 15 27.0067
      vertex 15 15 2
      vertex -15 15 2
    endloop
  endfacet
  facet normal -1 0 0
    outer loop
      vertex -15 -15 2
      vertex -15 15 27.0067
      vertex -15 15 2
    endloop
  endfacet
  facet normal -1 -0 0
    outer loop
      vertex -15 15 27.0067
      vertex -15 -15 2
      vertex -15 -15 27.0067
    endloop
  endfacet
endsolid OpenSCAD_Model
