solid OpenSCAD_Model
  facet normal -0 0 1
    outer loop
      vertex -17 18 31.0067
      vertex 18 -17 31.0067
      vertex 18 18 31.0067
    endloop
  endfacet
  facet normal 0 0 1
    outer loop
      vertex 18 -17 31.0067
      vertex -17 18 31.0067
      vertex -17 -17 31.0067
    endloop
  endfacet
  facet normal 0 0 -1
    outer loop
      vertex -17 -17 -3
      vertex 18 18 -3
      vertex 18 -17 -3
    endloop
  endfacet
  facet normal -0 0 -1
    outer loop
      vertex 18 18 -3
      vertex -17 -17 -3
      vertex -17 18 -3
    endloop
  endfacet
  facet normal 0 -1 0
    outer loop
      vertex -17 -17 -3
      vertex 18 -17 31.0067
      vertex -17 -17 31.0067
    endloop
  endfacet
  facet normal 0 -1 -0
    outer loop
      vertex 18 -17 31.0067
      vertex -17 -17 -3
      vertex 18 -17 -3
    endloop
  endfacet
  facet normal 1 -0 0
    outer loop
      vertex 18 -17 31.0067
      vertex 18 18 -3
      vertex 18 18 31.0067
    endloop
  endfacet
  facet normal 1 0 0
    outer loop
      vertex 18 18 -3
      vertex 18 -17 31.0067
      vertex 18 -17 -3
    endloop
  endfacet
  facet normal 0 1 -0
    outer loop
      vertex 18 18 -3
      vertex -17 18 31.0067
      vertex 18 18 31.0067
    endloop
  endfacet
  facet normal 0 1 0
    outer loop
      vertex -17 18 31.0067
      vertex 18 18 -3
      vertex -17 18 -3
    endloop
  endfacet
  facet normal -1 0 0
    outer loop
      vertex -17 -17 -3
      vertex -17 18 31.0067
      vertex -17 18 -3
    endloop
  endfacet
  facet normal -1 -0 0
    outer loop
      vertex -17 18 31.0067
      vertex -17 -17 -3
      vertex -17 -17 31.0067
    endloop
  endfacet
endsolid OpenSCAD_Model
